<?xml version="1.0" standalone="no"?>
<!DOCTYPE svg PUBLIC "-//W3C//DTD SVG 20010904//EN"
 "http://www.w3.org/TR/2001/REC-SVG-20010904/DTD/svg10.dtd">
<svg version="1.0" xmlns="http://www.w3.org/2000/svg"
 width="253.000000pt" height="287.000000pt" viewBox="0 0 253.000000 287.000000"
 preserveAspectRatio="xMidYMid meet">

<g transform="translate(0.000000,287.000000) scale(0.100000,-0.100000)"
fill="#000000" stroke="none">
<path d="M87 2783 c-4 -3 -7 -609 -7 -1345 l0 -1338 538 0 c668 0 762 10 1018
106 398 148 682 470 780 884 89 372 39 838 -118 1120 -48 86 -124 184 -184
239 -57 53 -189 143 -262 180 -136 69 -356 125 -581 146 -152 15 -1171 22
-1184 8z m943 -497 c201 -4 270 -19 405 -89 112 -58 236 -182 293 -293 120
-235 130 -558 26 -836 -67 -179 -221 -337 -399 -411 -121 -50 -201 -61 -445
-62 l-225 0 -3 840 c-1 462 0 845 2 850 2 6 38 9 87 8 46 -2 163 -4 259 -7z"/>
</g>
</svg>
